# xmcd
#
# Track frame offsets:
#	150
#	25964
#	42895
#	60611
#	74864
#	92980
#	127794
#	148850
#	171315
#	188545
#	209458
#	222572
#
# Disc length: 3372 seconds
#
# Revision: 1
# Processed by: cddbd v1.5.2PL0 Copyright (c) Steve Scherf et al.
# Submitted via: EasyCDDAExtractor 16.1.0.1
#
DISCID=bd0d2a0c
DTITLE=Александр Чёрный  - Да......это факт 
DYEAR=2005
DGENRE=Chanson
TTITLE0=Гитара (1997)
TTITLE1=Питер (2003)
TTITLE2=Владимир III (2000)
TTITLE3=Маслице (1995)
TTITLE4=Братва (1997)
TTITLE5=Монолог (1997)
TTITLE6=Судьба (1997)
TTITLE7=Бродяга пес (1995)
TTITLE8=Я б ее… (2001)
TTITLE9=Скажите люди (1998)
TTITLE10=Балаганчик II (1998)
TTITLE11=Волки (1998) (Байк-шоу98 Живой звук)
EXTD=
EXTT0=
EXTT1=
EXTT2=
EXTT3=
EXTT4=
EXTT5=
EXTT6=
EXTT7=
EXTT8=
EXTT9=
EXTT10=
EXTT11=
PLAYORDER=
